# AST/ASF file generated using VICON BodyLanguage
# -----------------------------------------------
:version 1.10
:name VICON
:units
  mass 1.0
  length 0.45
  angle deg
:documentation
   .ast/.asf automatically generated from VICON data using
   VICON BodyBuilder and BodyLanguage model FoxedUp or BRILLIANT.MOD
:root
   order TX TY TZ RX RY RZ
   axis XYZ
   position 0 0 0  
   orientation 0 0 0 
:bonedata
  begin
     id 1 
     name lhipjoint
     direction 0.611804 -0.747784 0.257906 
     length 2.29243 
     axis 0 0 0  XYZ
  end
  begin
     id 2 
     name lfemur
     direction 0.34202 -0.939693 0  
     length 7.31159  
     axis 0 0 20  XYZ
    dof rx ry rz
    limits (-160.0 20.0)
           (-70.0 70.0)
           (-60.0 70.0)
  end
  begin
     id 3 
     name ltibia
     direction 0.34202 -0.939693 0   
     length 7.33391   
     axis 0 0 20   XYZ
    dof rx
    limits (-10.0 170.0)
  end
  begin
     id 4 
     name lfoot
     direction 0.122263 -0.335914 0.933924   
     length 1.76083   
     axis -90 7.62852e-016 20   XYZ
    dof rx rz
    limits (-45.0 90.0)
           (-70.0 20.0)
  end
  begin
     id 5 
     name ltoes
     direction 1.53533e-011 -4.2177e-011 1   
     length 0.879206   
     axis -90 7.62852e-016 20   XYZ
    dof rx
    limits (-90.0 20.0)
  end
  begin
     id 6 
     name rhipjoint
     direction -0.646469 -0.721248 0.248754   
     length 2.37677  
     axis 0 0 0  XYZ 
  end
  begin
     id 7 
     name rfemur
     direction -0.34202 -0.939693 0   
     length 7.18623   
     axis 0 0 -20   XYZ
    dof rx ry rz
    limits (-160.0 20.0)
           (-70.0 70.0)
           (-70.0 60.0)
  end
  begin
     id 8 
     name rtibia
     direction -0.34202 -0.939693 0   
     length 7.36567   
     axis 0 0 -20   XYZ
    dof rx
    limits (-10.0 170.0)
 end
 begin
     id 9 
     name rfoot
     direction -0.126681 -0.348054 0.928876   
     length 1.71902  
     axis -90 -7.62852e-016 -20   XYZ
    dof rx rz
    limits (-45.0 90.0)
           (-20.0 70.0)
  end
  begin
     id 10 
     name rtoes
     direction -1.53551e-011 -4.21898e-011 1   
     length 0.857792   
     axis -90 -7.62852e-016 -20   XYZ
    dof rx
    limits (-90.0 20.0)
  end
  begin
     id 11 
     name lowerback
     direction 0.0106509 0.999778 0.0181844   
     length 2.07668   
     axis 0 0 0   XYZ
    dof rx ry rz
    limits (-20.0 45.0)
           (-30.0 30.0)
           (-30.0 30.0)
  end
  begin
     id 12 
     name upperback
     direction -0.00456018 0.999989 -0.000590935   
     length 2.08011   
     axis 0 0 0   XYZ
    dof rx ry rz
    limits (-20.0 45.0)
           (-30.0 30.0)
           (-30.0 30.0)
  end
  begin
     id 13 
     name thorax
     direction -0.00910382 0.999916 -0.00923765   
     length 2.07397   
     axis 0 0 0   XYZ
    dof rx ry rz
    limits (-20.0 45.0)
           (-30.0 30.0)
           (-30.0 30.0)
  end
  begin
     id 14 
     name lowerneck
     direction 0.00171967 0.99778 0.0665733   
     length 1.67556   
     axis 0 0 0   XYZ
    dof rx ry rz
    limits (-20.0 45.0)
           (-30.0 30.0)
           (-30.0 30.0)
  end
  begin
     id 15 
     name upperneck
     direction -0.0143166 0.991302 -0.130828   
     length 1.68462   
     axis 0 0 0   XYZ
    dof rx ry rz
    limits (-20.0 45.0)
           (-30.0 30.0)
           (-30.0 30.0)
  end
  begin
     id 16
     name head
     direction -0.00606378 0.998665 -0.0512995  
     length 1.69269  
     axis 0 0 0   XYZ
    dof rx ry rz
    limits (-20.0 45.0)
           (-30.0 30.0)
           (-30.0 30.0)
  end
  begin
     id 17 
     name lclavicle
     direction 0.9638 0.179341 0.197297  
     length 4.12888  
     axis 0 0 0   XYZ
    dof ry rz
    limits (-20.0 10.0)
           (0.0 20.0)
  end
  begin
     id 18 
     name lhumerus
     direction 1 -4.48972e-011 -2.47351e-027   
     length 5.01834   
     axis -180 -30 -90   XYZ
    dof rx ry rz
    limits (-60.0 90.0)
           (-90.0 90.0)
           (-90.0 90.0)
  end
  begin
     id 19
     name lradius
     direction 1 -4.48965e-011 1.51591e-026   
     length 3.4869   
     axis -180 -30 -90   XYZ
    dof rx
    limits (-10.0 170.0)
  end
  begin
     id 20
     name lwrist
     direction 1 -4.48957e-011 2.70032e-026   
     length 1.74345   
     axis -1.81515e-014 90 90   XYZ
    dof ry
    limits (-180.0 0.0)
 end
  begin
     id 21 
     name lhand
     direction 1 -4.48951e-011 5.40064e-026   
     length 0.76799   
     axis -3.44607e-014 90 90   XYZ
    dof rx rz
    limits (-90.0 90.0)
           (-45.0 45.0)
  end
  begin
     id 22 
     name lfingers
     direction 1 -4.48971e-011 1.08013e-025   
     length 0.619174   
     axis -6.89214e-014 90 90   XYZ
    dof rx
    limits (0.0 90.0)
  end
  begin
     id 23
     name lthumb
     direction 0.707107 -6.34931e-011 0.707107   
     length 0.889013   
     axis -90 45 2.85299e-015   XYZ
    dof rx rz
    limits (-45.0 45.0)
           (-45.0 45.0)
  end
  begin
     id 24 
     name rclavicle
     direction -0.961409 0.252588 0.109054   
     length 4.04305  
     axis 0 0 0   XYZ 
    dof ry rz
    limits (-10.0 20.0)
           (-20.0 0.0)
  end
  begin
     id 25 
     name rhumerus
     direction -1 -4.4897e-011 1.33872e-017  
     length 4.70164   
     axis -180 30 90   XYZ
    dof rx ry rz
    limits (-90.0 60.0)
           (-90.0 90.0)
           (-90.0 90.0)
  end
  begin
     id 26 
     name rradius
     direction -1 -4.48954e-011 1.83844e-026   
     length 3.49911   
     axis -180 30 90   XYZ
    dof rx
    limits (-10.0 170.0)
  end
  begin
     id 27 
     name rwrist
     direction -1 -4.49008e-011 2.70032e-026   
     length 1.74955   
     axis -1.81515e-014 -90 -90   XYZ
    dof ry
    limits (-180.0 0.0)
  end
  begin
     id 28
     name rhand
     direction -1 -4.48916e-011 5.40064e-026   
     length 0.739335   
     axis -3.44607e-014 -90 -90   XYZ
    dof rx rz
    limits (-90.0 90.0)
           (-45.0 45.0)
  end
  begin
     id 29
     name rfingers
     direction -1 -4.48987e-011 1.08013e-025   
     length 0.596071   
     axis -6.89214e-014 -90 -90   XYZ
    dof rx
    limits (0.0 90.0)
  end
  begin
     id 30
     name rthumb
     direction -0.707107 -6.34935e-011 0.707107   
     length 0.855843   
     axis -90 -45 -2.85299e-015   XYZ
    dof rx rz
    limits (-45.0 45.0)
           (-45.0 45.0)
  end
:hierarchy
  begin
    root lhipjoint rhipjoint lowerback
    lhipjoint lfemur
    lfemur ltibia
    ltibia lfoot
    lfoot ltoes
    rhipjoint rfemur
    rfemur rtibia
    rtibia rfoot
    rfoot rtoes
    lowerback upperback
    upperback thorax
    thorax lowerneck lclavicle rclavicle
    lowerneck upperneck
    upperneck head
    lclavicle lhumerus
    lhumerus lradius
    lradius lwrist
    lwrist lhand lthumb
    lhand lfingers
    rclavicle rhumerus
    rhumerus rradius
    rradius rwrist
    rwrist rhand rthumb
    rhand rfingers
  end

#!OML:ASF I:\salsa\salsa 7_09\Patient 1\Session 1\dancermale.ASF
:FULLY-SPECIFIED
:DEGREES
981
root 8.51437 16.509 -11.8826 187.499 171.3 176.184
lowerback 3.46903 -2.09912 1.29059
upperback -3.53504 -2.64828 1.61857
thorax -5.5904 -1.32801 1.17524
lowerneck -5.09849 -10.21 -4.66804
upperneck 13.3163 -13.9299 3.97882
head 5.4613 -6.79963 1.04926
rclavicle -5.88278e-015 9.83984e-015
rhumerus -7.12193 -22.2923 -70.4052
rradius 82.2135
rwrist 10.4501
rhand -31.3426 -11.0259
rfingers 7.12502
rthumb -4.614 -40.9557
lclavicle -5.88278e-015 9.83984e-015
lhumerus -45.9918 -14.8233 102.478
lradius 64.0911
lwrist 24.605
lhand -11.8908 51.2968
lfingers 7.12502
lthumb 14.1622 1160.79
rfemur -26.0469 -8.67059 -5.25549
rtibia 31.9063
rfoot 11.3945 -25.7887
rtoes 27.8681
lfemur -28.02 13.2404 -9.22118
ltibia 49.564
lfoot 333.895 24.1726
ltoes 7.43185
982
root 8.4593 16.4955 -11.87 187.274 171.507 176.141
lowerback 3.52936 -2.05504 1.18565
upperback -3.3363 -2.59558 1.66447
thorax -5.4096 -1.297 1.27326
lowerneck -5.06782 -9.9506 -5.23771
upperneck 13.2454 -13.5439 4.16966
head 5.46945 -6.62721 1.22324
rclavicle -9.47954e-015 9.64106e-015
rhumerus -8.99337 -20.3849 -70.7227
rradius 85.136
rwrist 11.3641
rhand -29.6135 -11.3974
rfingers 7.12502
rthumb -2.94417 -41.3568
lclavicle -9.47954e-015 9.64106e-015
lhumerus -45.5702 -15.5987 102.627
lradius 63.9764
lwrist 24.7518
lhand -12.0824 51.3697
lfingers 7.12502
lthumb 13.9776 1160.88
rfemur -26.8773 -8.22865 -5.26742
rtibia 33.6582
rfoot 9.96265 -24.0573
rtoes 30.6737
lfemur -27.6914 13.4319 -8.87608
ltibia 49.5759
lfoot 333.923 24.2682
ltoes 7.44261
983
root 8.38787 16.4833 -11.8495 187.08 171.577 175.969
lowerback 3.53241 -2.0075 1.2438
upperback -3.17204 -2.52796 1.73361
thorax -5.23939 -1.26454 1.30194
lowerneck -5.22437 -9.97853 -4.7434
upperneck 13.1411 -13.5613 3.76984
head 5.40162 -6.63597 1.02532
rclavicle 1.6847e-014 -8.94531e-015
rhumerus -11.1806 -18.0022 -70.9308
rradius 88.3408
rwrist 11.8056
rhand -28.6221 -11.2993
rfingers 7.12502
rthumb -1.98672 -41.2698
lclavicle 1.6847e-014 -8.94531e-015
lhumerus -45.1709 -16.5843 102.802
lradius 63.7999
lwrist 24.8783
lhand -12.0997 51.4252
lfingers 7.12502
lthumb 13.961 1160.94
rfemur -27.3591 -7.4993 -5.08469
rtibia 34.8843
rfoot 8.12281 -22.1864
rtoes 32.2851
lfemur -27.4154 13.5304 -8.30399
ltibia 49.6579
lfoot 333.986 24.2615
ltoes 7.23692
984
root 8.30391 16.4717 -11.8194 186.9 171.598 175.777
lowerback 3.52186 -1.92491 1.37775
upperback -3.0397 -2.41103 1.75817
thorax -5.10079 -1.21104 1.23885
lowerneck -5.40619 -9.85226 -4.93691
upperneck 13.3335 -13.363 3.71635
head 5.49298 -6.54588 1.03806
rclavicle 4.16827e-015 -1.90833e-014
rhumerus -13.6429 -15.4259 -71.1262
rradius 91.7404
rwrist 11.6352
rhand -27.9963 -10.8274
rfingers 7.12502
rthumb -1.38234 -40.8027
lclavicle 4.16827e-015 -1.90833e-014
lhumerus -44.8318 -17.7696 102.959
lradius 63.5634
lwrist 24.966
lhand -12.1569 51.4409
lfingers 7.12502
lthumb 13.9058 1160.96
rfemur -27.4573 -6.65794 -4.85137
rtibia 35.4447
rfoot 6.16072 -19.9847
rtoes 32.2632
lfemur -27.1167 13.5549 -7.65202
ltibia 49.6664
lfoot 334.062 24.2489
ltoes 7.17997
985
root 8.21242 16.4578 -11.7834 186.755 171.449 175.708
lowerback 3.59553 -1.87453 1.51041
upperback -2.99687 -2.33665 1.71356
thorax -5.10603 -1.17958 1.11442
lowerneck -5.70426 -9.79011 -4.82416
upperneck 13.6526 -13.2498 3.42488
head 5.61018 -6.49522 0.918855
rclavicle 5.3237e-015 -2.0773e-014
rhumerus -16.2379 -12.4773 -71.0427
rradius 95.1216
rwrist 10.6526
rhand -26.9566 -10.4184
rfingers 7.12502
rthumb -0.378164 -40.3978
lclavicle 5.3237e-015 -2.0773e-014
lhumerus -44.5901 -18.9195 103.064
lradius 63.2628
lwrist 25.0953
lhand -12.2056 51.3945
lfingers 7.12502
lthumb 13.8589 1160.91
rfemur -27.189 -5.93237 -4.74737
rtibia 35.2731
rfoot 4.03006 -17.6294
rtoes 29.6478
lfemur -26.9071 13.3591 -7.12658
ltibia 49.6462
lfoot 334.126 24.2591
ltoes 7.57358
986
root 8.11363 16.4432 -11.7435 186.689 171.086 175.764
lowerback 3.70986 -1.84919 1.63715
upperback -3.0497 -2.29557 1.61087
thorax -5.23622 -1.16573 0.940023
lowerneck -5.87993 -9.79291 -4.74071
upperneck 13.8958 -13.2474 3.29635
head 5.70143 -6.49268 0.852226
rclavicle 3.17434e-014 1.49089e-014
rhumerus -18.6937 -9.74378 -70.7699
rradius 98.0792
rwrist 9.05473
rhand -25.9944 -8.95915
rfingers 7.12502
rthumb 0.551155 -38.9382
lclavicle 3.17434e-014 1.49089e-014
lhumerus -44.3845 -19.9744 103.138
lradius 62.888
lwrist 25.1065
lhand -11.8765 51.4473
lfingers 7.12502
lthumb 14.176 1160.94
rfemur -26.6248 -5.19084 -4.78554
rtibia 34.384
rfoot 1.49968 -15.9769
rtoes 25.539
lfemur -26.8377 12.9133 -6.74887
ltibia 49.6325
lfoot 334.206 24.2791
ltoes 7.82542
